<?xml version="1.0" encoding="utf-8" ?><svg xmlns="http://www.w3.org/2000/svg" xmlns:xlink="http://www.w3.org/1999/xlink" width="2048" height="2048" viewBox="0 0 2048 2048"><defs><clipPath id="rounded"><rect width="2048" height="2048" rx="410" ry="410"/></clipPath></defs><g clip-path="url(#rounded)"><path fill="#D1973F" d="M0 0L2048 0L2048 2048L0 2048L0 0Z"/><path fill="#FEFEFD" d="M889.072 453.358C978.642 453.377 1070.15 452.311 1159.53 453.47L1159.65 685.262C1159.69 723.778 1159.13 763.46 1159.81 801.886L1403.89 558.002L1525.25 678.955C1545.59 699.279 1576.2 728.155 1594.72 748.925C1572.26 773.495 1542.97 801.427 1519.09 825.307C1468.98 874.974 1419.17 924.949 1369.68 975.232C1431.87 974.788 1494.07 974.684 1556.27 974.921C1592.18 974.944 1629.76 974.367 1665.55 975.11L1665.54 1245.1L1530.57 1245.16C1499.41 1245.21 1465.33 1246.29 1434.47 1243.19C1335.01 1233.17 1256.33 1193.93 1183.39 1127.33C1174.59 1134.76 1166.71 1144.06 1158.46 1152.13C1142.87 1167.35 1127.64 1183.66 1111.96 1198.69C1121.57 1202.75 1162.04 1198.58 1175.24 1199.72C1191.82 1201.14 1215.9 1194.38 1228 1209.7C1244.8 1225.5 1231.84 1257.85 1207.85 1258.45C1184.14 1259.04 1160.54 1258.87 1136.82 1258.85L998.228 1258.75L891.255 1258.86C873.297 1258.89 854.478 1259.45 836.67 1258.34C824.364 1256.68 811.356 1241.15 812.442 1229.04C815.586 1193.96 849.022 1199.66 872.058 1199.73L937.242 1199.85C929.838 1191.35 915.247 1177.87 906.775 1169.54L902.985 1166.03C899.993 1161.84 870.038 1132.24 864.949 1127.31C856.682 1133.79 846.876 1143.34 838.44 1150.42C824.183 1162.3 809.117 1173.18 793.351 1182.98C737.593 1217.35 674.52 1238.1 609.244 1243.55C579.561 1245.81 547.543 1244.96 517.57 1244.96L382.504 1244.96C381.19 1218.36 382.323 1181.29 382.319 1153.83L382.273 974.913L679.137 975.099C657.478 952.762 633.702 928.262 611.265 906.872C607.99 903.206 606.847 901.822 603.036 898.845C592.788 886.615 566.57 862.119 554.511 850.006C521.172 816.214 487.613 782.64 453.836 749.286C457.581 744.787 467.691 734.576 472.011 730.81C476.181 725.967 482.064 720.751 486.824 715.39L488.138 713.999C493.475 709.92 504.347 698.396 509.761 693.067C547.018 654.719 585.939 617.603 623.307 579.314C630.32 572.128 637.385 564.74 644.707 557.879L818.947 731.941L865.225 778.264C872.307 785.35 882.562 795.009 888.973 802.404L889.072 453.358Z"/><path fill="#D1963D" d="M1016.09 659.401C1017.89 659.198 1019.7 659.064 1021.51 659.001C1039.46 658.477 1058.9 669.992 1062.97 688.8C1065.39 700.002 1064.26 717.291 1064.25 729.264L1064.21 790.869L1064.28 1032.54C1087.33 1013.43 1151.83 935.612 1175.12 930.436C1185.6 928.198 1196.54 930.185 1205.56 935.965C1222.04 946.62 1229.46 972.786 1217.48 989.372C1209.24 1000.77 1196.75 1012.2 1186.75 1022.39L1138.64 1071.67L1081.24 1130.53C1066.25 1145.86 1050.01 1167.23 1028.32 1170.54C1013.52 1170.33 1004.7 1168.15 993.352 1157.59C981.187 1146.28 969.252 1133.54 957.659 1121.59L899.211 1061.43L856.164 1017.13C843.044 1003.57 825.443 989.888 824.911 970.004C824.539 959.369 828.594 949.056 836.109 941.523C843.591 933.891 853.827 929.587 864.515 929.581C886.801 929.526 906.895 955.25 921.911 970.253L984.121 1033.02C985.035 1004.53 984.391 973.622 984.383 944.92L984.389 785.788L984.322 730.311C984.149 700.576 979.209 668.84 1016.09 659.401Z"/><path fill="#FEFEFD" d="M382.546 1307.03L1665.18 1306.93C1665.52 1352.06 1665.55 1397.19 1665.27 1442.32C1634.25 1443.44 1597.72 1442.5 1566.27 1442.5L772.121 1442.48L513.028 1442.54C470.003 1442.56 425.332 1443.28 382.476 1442.59C382.153 1435.44 382.241 1427.71 382.312 1420.54C382.687 1382.8 381.489 1344.73 382.546 1307.03Z"/><path fill="#D1963D" d="M611.265 906.872C611.187 909.942 611.995 911.609 612.976 914.494C610.232 912.118 609.14 911.151 605.7 911.578L605.161 912.779C606.018 912.665 606.876 912.552 607.733 912.438C608.458 915.435 608.577 914.02 607.412 916.834C604.327 915.975 591.088 901.592 592.813 897.135C597.263 895.656 598.06 896.83 603.036 898.845C606.847 901.822 607.99 903.206 611.265 906.872Z"/><path fill="#D1963D" d="M906.775 1169.54C906.348 1174.82 907.2 1173.03 904.081 1176.89L901.681 1176.71C896.348 1173.55 885.271 1164.26 887.005 1157.46C893.562 1156.56 895.864 1165.46 902.985 1166.03L906.775 1169.54Z"/><path fill="#D1963D" d="M768.348 1200.77C769.732 1201.08 770.293 1202.12 771.517 1203.41C771.351 1210.14 759.018 1215.44 752.388 1214.74C749.568 1214.37 749.549 1214.6 747.422 1212.81C749.096 1208.6 763.543 1202.94 768.348 1200.77Z"/><path fill="#D1963D" d="M1279.33 1201.67C1284.17 1202.34 1300.71 1208.69 1301.38 1214.2C1298.9 1215.59 1299.64 1215.18 1296.72 1215.79C1294.11 1215.04 1285.17 1213.96 1283.9 1212.43C1280.68 1208.54 1286.43 1207.3 1279.33 1201.67Z"/><path fill="#D1963D" d="M816.84 1251.69C821.461 1255.27 831.435 1258.84 832.495 1263.94C823.483 1268.78 817.101 1260.86 816.84 1251.69Z"/><path fill="#D1963D" d="M486.824 715.39C482.998 716.317 482.763 717.128 480.034 715.802L480.438 715.674C478.03 711.343 483.74 705.726 487.696 704.372L489.548 705.332C490.516 709.773 489.939 708.929 488.138 713.999L486.824 715.39Z"/><path fill="#D1963D" d="M918.895 1188.49C921.978 1188.48 926.901 1191.97 927.452 1195.42C924.319 1197.87 923.906 1196.93 918.751 1196.89C916.634 1196.62 916.209 1196.32 914.163 1195.61C916.757 1195.06 915.993 1195.43 918.026 1194C918.725 1191.31 919.072 1191.09 918.895 1188.49Z"/></g></svg>
